PathFileType	4	(X/Y/Z)	 2.5Hzlow3min.trc
DataRate	CameraRate	NumFrames	NumMarkers	Units	OrigDataRate	OrigDataStartFrame	OrigNumFrames
200	200	7	43	m	200	1	1000
Frame#	Time	C7			LSH			RSH			MAN			RASI			LASI			HIPR			HIPL			RPSI			LPSI			COX			RTHI1			RTHI2			RTHI3			RTHI4			RLKN			RMKN			RSHA1			RSHA2			RSHA3			RSHA4			RLMAL			RMMAL			RHEEL			RMET5			RMET1			RTOE			LTHI1			LTHI2			LTHI3			LTHI4			LLKN			LMKN			LSHA1			LSHA2			LSHA3			LSHA4			LLMAL			LMMAL			LHEEL			LMET5			LMET1			LTOE			
		X1	Y1	Z1	X2	Y2	Z2	X3	Y3	Z3	X4	Y4	Z4	X5	Y5	Z5	X6	Y6	Z6	X7	Y7	Z7	X8	Y8	Z8	X9	Y9	Z9	X10	Y10	Z10	X11	Y11	Z11	X12	Y12	Z12	X13	Y13	Z13	X14	Y14	Z14	X15	Y15	Z15	X16	Y16	Z16	X17	Y17	Z17	X18	Y18	Z18	X19	Y19	Z19	X20	Y20	Z20	X21	Y21	Z21	X22	Y22	Z22	X23	Y23	Z23	X24	Y24	Z24	X25	Y25	Z25	X26	Y26	Z26	X27	Y27	Z27	X28	Y28	Z28	X29	Y29	Z29	X30	Y30	Z30	X31	Y31	Z31	X32	Y32	Z32	X33	Y33	Z33	X34	Y34	Z34	X35	Y35	Z35	X36	Y36	Z36	X37	Y37	Z37	X38	Y38	Z38	X39	Y39	Z39	X40	Y40	Z40	X41	Y41	Z41	X42	Y42	Z42	X43	Y43	Z43	
1	0.0050	-0.282055	1.456397	-0.524018	-0.263955	1.467557	-0.698972	-0.214149	1.450151	-0.353198	-0.155521	1.401139	-0.535457	-0.168357	0.967965	-0.433373	-0.168090	0.970708	-0.651942	-0.212489	1.023688	-0.402640	-0.238993	1.023556	-0.679366	-0.315886	1.009185	-0.483318	-0.316226	1.010543	-0.588609	-0.320062	1.002432	-0.534418	-0.241010	0.764981	-0.358531	-0.224677	0.707656	-0.352870	-0.162610	0.722138	-0.367092	-0.172228	0.782453	-0.375912	-0.195955	0.447872	-0.373593	-0.202329	0.443877	-0.473752	-0.328377	0.270450	-0.377622	-0.349065	0.234453	-0.390875	-0.292834	0.212464	-0.398363	-0.276748	0.248363	-0.389797	-0.373910	0.117853	-0.406571	-0.347823	0.132049	-0.483466	-0.421160	0.123930	-0.455595	-0.286026	0.040817	-0.374111	-0.238767	0.045480	-0.443077	-0.216188	0.037538	-0.437364	-0.273227	0.762523	-0.722092	-0.254277	0.704401	-0.731244	-0.191394	0.719647	-0.735240	-0.201542	0.778829	-0.726910	-0.199857	0.462219	-0.724592	-0.201419	0.459165	-0.621609	-0.328877	0.259194	-0.732679	-0.343945	0.222436	-0.724645	-0.285027	0.206166	-0.713349	-0.276636	0.248516	-0.723201	-0.351083	0.118600	-0.721389	-0.338808	0.130747	-0.642929	-0.409567	0.103978	-0.678383	-0.260795	0.043417	-0.734381	-0.221442	0.046556	-0.659251	-0.195147	0.038288	-0.661303	
2	0.0100	-0.282040	1.451723	-0.523935	-0.263889	1.462967	-0.698874	-0.213977	1.445686	-0.353161	-0.155596	1.396153	-0.535373	-0.168978	0.963174	-0.433234	-0.168685	0.965559	-0.651983	-0.213214	1.018438	-0.402438	-0.239739	1.018110	-0.679641	-0.316688	1.004058	-0.483356	-0.316977	1.005359	-0.588665	-0.321079	0.997260	-0.534450	-0.241046	0.760377	-0.358270	-0.224398	0.703197	-0.352468	-0.162317	0.718039	-0.366449	-0.172298	0.778239	-0.375323	-0.194607	0.443440	-0.373064	-0.200896	0.439662	-0.473135	-0.328528	0.266789	-0.377326	-0.349551	0.231188	-0.390651	-0.293451	0.208774	-0.398523	-0.277004	0.244453	-0.389788	-0.375094	0.115040	-0.406864	-0.349480	0.129286	-0.483882	-0.422820	0.120992	-0.455474	-0.286602	0.040041	-0.373999	-0.238893	0.045394	-0.443056	-0.216148	0.037483	-0.437249	-0.273425	0.757098	-0.722182	-0.254107	0.699103	-0.731456	-0.191413	0.714826	-0.736000	-0.201921	0.773924	-0.727607	-0.198442	0.457563	-0.725198	-0.199779	0.454611	-0.622245	-0.328680	0.255194	-0.732793	-0.344152	0.218610	-0.724506	-0.285506	0.201896	-0.712600	-0.276621	0.244056	-0.722849	-0.352068	0.115094	-0.720634	-0.340229	0.127580	-0.641989	-0.410944	0.100510	-0.677705	-0.261454	0.042788	-0.734311	-0.221301	0.046389	-0.658934	-0.194905	0.038173	-0.661126	
3	0.0150	-0.282067	1.447158	-0.523878	-0.263849	1.458531	-0.698759	-0.213841	1.441328	-0.353137	-0.155581	1.391268	-0.535291	-0.169623	0.958527	-0.433077	-0.169348	0.960467	-0.652013	-0.213943	1.013294	-0.402216	-0.240513	1.012671	-0.680020	-0.317571	0.999017	-0.483387	-0.317790	1.000261	-0.588752	-0.322311	0.992177	-0.534466	-0.241065	0.755960	-0.358005	-0.224183	0.698876	-0.352113	-0.162097	0.714003	-0.365760	-0.172340	0.774150	-0.374661	-0.193324	0.439156	-0.372557	-0.199573	0.435664	-0.472535	-0.328614	0.263265	-0.377157	-0.349965	0.228042	-0.390433	-0.294035	0.205273	-0.398827	-0.277198	0.240735	-0.389892	-0.376255	0.112464	-0.407146	-0.350999	0.126772	-0.484255	-0.424123	0.118242	-0.455533	-0.287298	0.039423	-0.373861	-0.239105	0.045380	-0.443071	-0.216242	0.037452	-0.437198	-0.273598	0.751816	-0.722256	-0.253965	0.693928	-0.731624	-0.191440	0.710104	-0.736725	-0.202251	0.769106	-0.728295	-0.197026	0.453016	-0.725841	-0.198202	0.450202	-0.622929	-0.328414	0.251343	-0.732837	-0.344282	0.214918	-0.724318	-0.285891	0.197826	-0.711819	-0.276541	0.239809	-0.722440	-0.352996	0.111800	-0.719887	-0.341498	0.124653	-0.641117	-0.412163	0.097361	-0.676985	-0.262230	0.042287	-0.734335	-0.221257	0.046270	-0.658715	-0.194794	0.038089	-0.660983	
4	0.0200	-0.282095	1.442680	-0.523820	-0.263819	1.454153	-0.698648	-0.213713	1.437026	-0.353109	-0.155550	1.386438	-0.535209	-0.170270	0.953945	-0.432916	-0.170021	0.955430	-0.652040	-0.214678	1.008191	-0.401983	-0.241292	1.007262	-0.680401	-0.318472	0.994028	-0.483418	-0.318630	0.995200	-0.588833	-0.323526	0.987135	-0.534479	-0.241100	0.751629	-0.357750	-0.223989	0.694641	-0.351769	-0.161902	0.710047	-0.365068	-0.172391	0.770136	-0.373995	-0.192037	0.434978	-0.372063	-0.198270	0.431767	-0.471955	-0.328654	0.259864	-0.376990	-0.350346	0.225000	-0.390241	-0.294558	0.201868	-0.399097	-0.277371	0.237125	-0.389982	-0.377360	0.109953	-0.407450	-0.352441	0.124326	-0.484629	-0.425381	0.115575	-0.455611	-0.287939	0.038838	-0.373718	-0.239305	0.045366	-0.443055	-0.216315	0.037413	-0.437128	-0.273781	0.746613	-0.722316	-0.253839	0.688830	-0.731783	-0.191483	0.705447	-0.737438	-0.202597	0.764360	-0.728975	-0.195603	0.448572	-0.726479	-0.196589	0.445875	-0.623625	-0.328143	0.247641	-0.732884	-0.344392	0.211372	-0.724145	-0.286251	0.193901	-0.711089	-0.276446	0.235713	-0.722060	-0.353892	0.108638	-0.719166	-0.342700	0.121831	-0.640274	-0.413332	0.094312	-0.676288	-0.262976	0.041787	-0.734381	-0.221226	0.046163	-0.658517	-0.194689	0.038011	-0.660874	
5	0.0250	-0.282129	1.438398	-0.523769	-0.263814	1.449936	-0.698534	-0.213607	1.432861	-0.353078	-0.155465	1.381753	-0.535130	-0.170928	0.949530	-0.432736	-0.170734	0.950512	-0.652061	-0.215428	1.003207	-0.401726	-0.242096	1.001914	-0.680829	-0.319427	0.989168	-0.483443	-0.319529	0.990254	-0.588913	-0.324795	0.982207	-0.534480	-0.241151	0.747516	-0.357504	-0.223852	0.690604	-0.351456	-0.161768	0.706253	-0.364360	-0.172451	0.766306	-0.373304	-0.190772	0.431022	-0.371600	-0.197026	0.428110	-0.471410	-0.328597	0.256700	-0.376886	-0.350626	0.222162	-0.390099	-0.294989	0.198686	-0.399390	-0.277484	0.233761	-0.390104	-0.378371	0.107651	-0.407765	-0.353705	0.122096	-0.484983	-0.426410	0.113113	-0.455798	-0.288571	0.038344	-0.373579	-0.239502	0.045371	-0.443051	-0.216401	0.037386	-0.437080	-0.273974	0.741624	-0.722342	-0.253755	0.683939	-0.731905	-0.191558	0.700971	-0.738124	-0.202952	0.759787	-0.729626	-0.194175	0.444349	-0.727124	-0.194962	0.441745	-0.624358	-0.327843	0.244220	-0.732906	-0.344446	0.208095	-0.723973	-0.286535	0.190277	-0.710421	-0.276308	0.231927	-0.721704	-0.354719	0.105744	-0.718486	-0.343742	0.119266	-0.639505	-0.414361	0.091545	-0.675601	-0.263706	0.041341	-0.734495	-0.221226	0.046101	-0.658403	-0.194630	0.037959	-0.660815	
6	0.0300	-0.282154	1.434380	-0.523704	-0.263844	1.445908	-0.698432	-0.213527	1.428872	-0.353025	-0.155346	1.377257	-0.535054	-0.171590	0.945317	-0.432542	-0.171465	0.945786	-0.652076	-0.216196	0.998362	-0.401440	-0.242924	0.996691	-0.681252	-0.320412	0.984489	-0.483480	-0.320488	0.985460	-0.588958	-0.325994	0.977439	-0.534473	-0.241233	0.743664	-0.357269	-0.223758	0.686825	-0.351165	-0.161684	0.702707	-0.363656	-0.172540	0.762713	-0.372619	-0.189515	0.427371	-0.371170	-0.195807	0.424749	-0.470917	-0.328436	0.253861	-0.376781	-0.350823	0.219612	-0.390019	-0.295307	0.195768	-0.399636	-0.277524	0.230696	-0.390212	-0.379238	0.105558	-0.408105	-0.354763	0.120075	-0.485346	-0.427302	0.110900	-0.456043	-0.289127	0.037936	-0.373432	-0.239671	0.045383	-0.443047	-0.216477	0.037363	-0.437042	-0.274205	0.736938	-0.722324	-0.253734	0.679341	-0.731993	-0.191699	0.696747	-0.738755	-0.203351	0.755485	-0.730225	-0.192738	0.440441	-0.727741	-0.193258	0.437884	-0.625102	-0.327527	0.241179	-0.732936	-0.344452	0.205193	-0.723840	-0.286752	0.187035	-0.709881	-0.276136	0.228537	-0.721421	-0.355457	0.103198	-0.717880	-0.344617	0.116985	-0.638805	-0.415257	0.089070	-0.674986	-0.264383	0.040954	-0.734627	-0.221249	0.046058	-0.658331	-0.194600	0.037919	-0.660794	
7	0.0350	-0.282143	1.430716	-0.523625	-0.263907	1.442117	-0.698341	-0.213460	1.425101	-0.352942	-0.155201	1.373039	-0.534983	-0.172254	0.941374	-0.432335	-0.172214	0.941331	-0.652085	-0.217003	0.993714	-0.401114	-0.243814	0.991655	-0.681677	-0.321416	0.980077	-0.483513	-0.321484	0.980922	-0.588949	-0.327153	0.972928	-0.534447	-0.241348	0.740146	-0.357051	-0.223703	0.683376	-0.350895	-0.161649	0.699488	-0.362998	-0.172661	0.759444	-0.371973	-0.188254	0.424087	-0.370788	-0.194580	0.421730	-0.470501	-0.328160	0.251381	-0.376725	-0.350889	0.217393	-0.389999	-0.295504	0.193192	-0.399843	-0.277484	0.227994	-0.390299	-0.379948	0.103721	-0.408446	-0.355596	0.118301	-0.485699	-0.428021	0.108970	-0.456351	-0.289594	0.037624	-0.373283	-0.239790	0.045396	-0.443041	-0.216514	0.037346	-0.437007	-0.274473	0.732680	-0.722263	-0.253778	0.675168	-0.732045	-0.191900	0.692909	-0.739341	-0.203795	0.751567	-0.730767	-0.191306	0.436950	-0.728339	-0.191509	0.434375	-0.625842	-0.327197	0.238578	-0.732967	-0.344408	0.202734	-0.723733	-0.286888	0.184235	-0.709489	-0.275926	0.225602	-0.721235	-0.356086	0.101022	-0.717357	-0.345298	0.115025	-0.638200	-0.416004	0.086909	-0.674429	-0.264977	0.040603	-0.734785	-0.221274	0.046045	-0.658310	-0.194581	0.037907	-0.660825	
